<svg width="168" height="30" viewBox="0 0 168 30" fill="none" xmlns="http://www.w3.org/2000/svg">
<g id="Group 14">
<path id="Star 1" d="M15 0L18.3677 10.3647H29.2658L20.4491 16.7705L23.8168 27.1353L15 20.7295L6.18322 27.1353L9.55093 16.7705L0.734152 10.3647H11.6323L15 0Z" fill="#FFD600"/>
<path id="Star 2" d="M49.5 0L52.98 10.3647H64.2414L55.1307 16.7705L58.6107 27.1353L49.5 20.7295L40.3893 27.1353L43.8693 16.7705L34.7586 10.3647H46.02L49.5 0Z" fill="#FFD600"/>
<path id="Star 3" d="M84 0L87.3677 10.3647H98.2658L89.4491 16.7705L92.8168 27.1353L84 20.7295L75.1832 27.1353L78.5509 16.7705L69.7342 10.3647H80.6323L84 0Z" fill="#FFD600"/>
<path id="Star 4" d="M118.5 0L121.98 10.3647H133.241L124.131 16.7705L127.611 27.1353L118.5 20.7295L109.389 27.1353L112.869 16.7705L103.759 10.3647H115.02L118.5 0Z" fill="#FFD600"/>
<path id="Star 5" d="M153 0L156.368 10.3647H167.266L158.449 16.7705L161.817 27.1353L153 20.7295L144.183 27.1353L147.551 16.7705L138.734 10.3647H149.632L153 0Z" fill="#FFD600"/>
</g>
</svg>
