<svg width="30" height="30" viewBox="0 0 30 30" fill="none" xmlns="http://www.w3.org/2000/svg">
<g id="eva:phone-call-fill">
<path id="Vector" d="M16.25 10C17.2446 10 18.1984 10.3951 18.9017 11.0983C19.6049 11.8016 20 12.7554 20 13.75C20 14.0815 20.1317 14.3995 20.3661 14.6339C20.6005 14.8683 20.9185 15 21.25 15C21.5815 15 21.8995 14.8683 22.1339 14.6339C22.3683 14.3995 22.5 14.0815 22.5 13.75C22.5 12.0924 21.8415 10.5027 20.6694 9.33058C19.4973 8.15848 17.9076 7.5 16.25 7.5C15.9185 7.5 15.6005 7.6317 15.3661 7.86612C15.1317 8.10054 15 8.41848 15 8.75C15 9.08152 15.1317 9.39946 15.3661 9.63388C15.6005 9.8683 15.9185 10 16.25 10Z" fill="white"/>
<path id="Vector_2" d="M26.7145 20.0496L26.7145 20.0496L26.7164 20.055C26.8119 20.3237 26.884 20.6002 26.9316 20.8813C26.9775 21.1684 27.0004 21.4587 27 21.7494V21.75C27 22.4394 26.8642 23.1221 26.6004 23.7591C26.3365 24.396 25.9498 24.9748 25.4623 25.4623C24.9748 25.9498 24.396 26.3365 23.7591 26.6004C23.1223 26.8641 22.4399 26.9999 21.7506 27C16.7796 26.9936 12.0141 25.016 8.49905 21.5009C4.9841 17.986 3.00653 13.2206 3 8.24968C3.00008 6.85741 3.5532 5.52218 4.53769 4.53769C5.52045 3.55493 6.85273 3.00203 8.24236 3.00001C8.53106 3.00929 8.81816 3.04683 9.09956 3.11208L9.11928 3.11665L9.13931 3.11961C9.41358 3.1602 9.68321 3.22761 9.94432 3.32087L9.94431 3.32091L9.95044 3.32301C10.0708 3.36426 10.1788 3.43547 10.264 3.52994C10.3493 3.62439 10.4092 3.73899 10.4379 3.86294C10.4379 3.86296 10.4379 3.86298 10.4379 3.86301L12.1499 11.2731C12.1499 11.2734 12.15 11.2736 12.1501 11.2739C12.1776 11.3958 12.1742 11.5226 12.1402 11.6429C12.1061 11.7634 12.0424 11.8735 11.9549 11.9631L11.9444 11.9737L11.9347 11.985C11.8964 12.0292 11.8906 12.0341 11.8804 12.0422C11.8639 12.0553 11.8258 12.0822 11.7225 12.1396C11.5353 12.2438 11.2086 12.4084 10.5723 12.7289C10.4946 12.768 10.4123 12.8095 10.325 12.8535L9.8956 13.0699L10.095 13.5074C11.376 16.3175 13.6234 18.5742 16.4283 19.8666L16.8598 20.0654L17.0803 19.6446C17.4896 18.8639 17.6892 18.4863 17.8086 18.2814C17.8672 18.1808 17.8964 18.1397 17.9126 18.1194C17.9253 18.1034 17.9338 18.0947 17.9777 18.0539L17.9778 18.054L17.9869 18.0451C18.0765 17.9576 18.1866 17.8939 18.3071 17.8598L18.1711 17.3787L18.3071 17.8598C18.4275 17.8258 18.5545 17.8224 18.6766 17.85C18.6767 17.8501 18.6768 17.8501 18.6769 17.8501L26.1745 19.5621C26.1748 19.5621 26.1751 19.5622 26.1754 19.5623C26.299 19.5911 26.4133 19.6509 26.5076 19.736C26.602 19.8212 26.6732 19.9292 26.7145 20.0496ZM22.7907 7.20926C21.056 5.47455 18.7033 4.5 16.25 4.5C16.0511 4.5 15.8603 4.42098 15.7197 4.28033C15.579 4.13968 15.5 3.94891 15.5 3.75C15.5 3.55109 15.579 3.36032 15.7197 3.21967C15.8603 3.07902 16.0511 3 16.25 3C19.1011 3 21.8354 4.13259 23.8514 6.1486C25.8674 8.16462 27 10.8989 27 13.75C27 13.9489 26.921 14.1397 26.7803 14.2803C26.6397 14.421 26.4489 14.5 26.25 14.5C26.0511 14.5 25.8603 14.421 25.7197 14.2803C25.579 14.1397 25.5 13.9489 25.5 13.75C25.5 11.2967 24.5254 8.94397 22.7907 7.20926Z" fill="white" stroke="black"/>
</g>
</svg>
