<svg width="60" height="60" viewBox="0 0 60 60" fill="none" xmlns="http://www.w3.org/2000/svg">
<path d="M47.5 10H45V5H40V10H20V5H15V10H12.5C9.725 10 7.525 12.25 7.525 15L7.5 50C7.5 51.3261 8.02678 52.5979 8.96447 53.5355C9.90215 54.4732 11.1739 55 12.5 55H47.5C50.25 55 52.5 52.75 52.5 50V15C52.5 12.25 50.25 10 47.5 10ZM47.5 50H12.5V25H47.5V50ZM22.5 35H17.5V30H22.5V35ZM32.5 35H27.5V30H32.5V35ZM42.5 35H37.5V30H42.5V35ZM22.5 45H17.5V40H22.5V45ZM32.5 45H27.5V40H32.5V45ZM42.5 45H37.5V40H42.5V45Z" fill="#FFB703"/>
</svg>
