<svg width="60" height="60" viewBox="0 0 60 60" fill="none" xmlns="http://www.w3.org/2000/svg">
<g id="mdi:shield-person">
<path id="Vector" d="M30 2.5L7.5 12.5V27.5C7.5 41.375 17.1 54.35 30 57.5C42.9 54.35 52.5 41.375 52.5 27.5V12.5L30 2.5ZM30 12.5C31.9891 12.5 33.8968 13.2902 35.3033 14.6967C36.7098 16.1032 37.5 18.0109 37.5 20C37.5 21.9891 36.7098 23.8968 35.3033 25.3033C33.8968 26.7098 31.9891 27.5 30 27.5C28.0109 27.5 26.1032 26.7098 24.6967 25.3033C23.2902 23.8968 22.5 21.9891 22.5 20C22.5 18.0109 23.2902 16.1032 24.6967 14.6967C26.1032 13.2902 28.0109 12.5 30 12.5ZM42.825 42.5C39.7959 47.1367 35.2696 50.5954 30 52.3C24.7304 50.5954 20.2041 47.1367 17.175 42.5C16.325 41.25 15.6 40 15 38.675C15 34.55 21.775 31.175 30 31.175C38.225 31.175 45 34.475 45 38.675C44.4 40 43.675 41.25 42.825 42.5Z" fill="#FFB703"/>
</g>
</svg>
