<svg width="54" height="54" viewBox="0 0 54 54" fill="none" xmlns="http://www.w3.org/2000/svg">
<g id="Group 16">
<circle id="Ellipse 1" cx="27" cy="27" r="25.5" transform="rotate(-180 27 27)" stroke="#FFB703" stroke-width="3"/>
<path id="Vector 1" d="M36.5607 27.5607C37.1464 26.9749 37.1464 26.0251 36.5607 25.4393L27.0147 15.8934C26.4289 15.3076 25.4792 15.3076 24.8934 15.8934C24.3076 16.4792 24.3076 17.4289 24.8934 18.0147L33.3787 26.5L24.8934 34.9853C24.3076 35.5711 24.3076 36.5208 24.8934 37.1066C25.4792 37.6924 26.4289 37.6924 27.0147 37.1066L36.5607 27.5607ZM18 25C17.1716 25 16.5 25.6716 16.5 26.5C16.5 27.3284 17.1716 28 18 28L18 25ZM35.5 25L18 25L18 28L35.5 28L35.5 25Z" fill="#FFB703"/>
</g>
</svg>
