<svg width="54" height="54" viewBox="0 0 54 54" fill="none" xmlns="http://www.w3.org/2000/svg">
<g id="Group 15">
<circle id="Ellipse 1" cx="27" cy="27" r="25.5" stroke="#FFB703" stroke-width="3"/>
<path id="Vector 1" d="M17.4393 26.4393C16.8536 27.0251 16.8536 27.9749 17.4393 28.5607L26.9853 38.1066C27.5711 38.6924 28.5208 38.6924 29.1066 38.1066C29.6924 37.5208 29.6924 36.5711 29.1066 35.9853L20.6213 27.5L29.1066 19.0147C29.6924 18.4289 29.6924 17.4792 29.1066 16.8934C28.5208 16.3076 27.5711 16.3076 26.9853 16.8934L17.4393 26.4393ZM36 29C36.8284 29 37.5 28.3284 37.5 27.5C37.5 26.6716 36.8284 26 36 26V29ZM18.5 29H36V26H18.5V29Z" fill="#FFB703"/>
</g>
</svg>
