<svg width="45" height="45" viewBox="0 0 45 45" fill="none" xmlns="http://www.w3.org/2000/svg">
<g id="typcn:social-instagram-circular">
<path id="Vector" d="M22.315 2.625C11.3761 2.625 2.625 11.3761 2.625 22.315C2.625 33.2539 11.3761 42.005 22.315 42.005C33.2539 42.005 42.005 33.2539 42.005 22.315C42.005 11.3761 33.2539 2.625 22.315 2.625ZM22.315 17.9394C24.7216 17.9394 26.6906 19.9084 26.6906 22.315C26.6906 24.7216 24.7216 26.6906 22.315 26.6906C19.9084 26.6906 17.9394 24.7216 17.9394 22.315C17.9394 19.9084 19.9084 17.9394 22.315 17.9394ZM28.4408 13.5639C28.4408 12.0324 29.7534 10.9386 31.0661 10.9386C32.3788 10.9386 33.6914 12.2512 33.6914 13.5639C33.6914 14.8766 32.5976 16.1892 31.0661 16.1892C29.5347 16.1892 28.4408 15.0953 28.4408 13.5639ZM22.315 37.6294C13.7827 37.6294 7.00056 30.8473 7.00056 22.315H13.5639C13.5639 27.1281 17.5019 31.0661 22.315 31.0661C27.1281 31.0661 31.0661 27.1281 31.0661 22.315H37.6294C37.6294 30.8473 30.8473 37.6294 22.315 37.6294Z" fill="#558E4C"/>
</g>
</svg>
