<svg width="14" height="14" viewBox="0 0 14 14" fill="none" xmlns="http://www.w3.org/2000/svg">
<path d="M8.7691 8.95413C9.05112 8.56364 9.20969 8.07002 9.20969 7.5001V6.27357C9.20969 5.91047 9.14188 5.57807 9.01769 5.28396L9.259 4.84303L9.36 4.65847V8.58646V9.2396C9.33633 9.17599 9.31825 9.09692 9.3086 8.997L8.7691 8.95413ZM5.1005 8.98173C5.32339 9.28486 5.60306 9.5159 5.92105 9.66832C5.47246 9.64528 5.09122 9.46416 4.80539 9.13371C4.49055 8.76971 4.22 8.13816 4.22 7.13141C4.22 6.08127 4.46852 5.36618 4.81332 4.93442C4.98637 4.71774 5.20638 4.54307 5.48878 4.42833C5.38386 4.51838 5.28428 4.62081 5.19167 4.73617C4.74385 5.29406 4.53219 6.06004 4.53219 6.97445C4.53219 7.71894 4.69476 8.42991 5.1005 8.98173Z" fill="white" stroke="white" stroke-width="2"/>
</svg>
